<?xml version="1.0" encoding="utf-8"?>
<!-- Generator: Adobe Illustrator 26.5.0, SVG Export Plug-In . SVG Version: 6.00 Build 0)  -->
<svg version="1.0" id="レイヤー_1" xmlns="http://www.w3.org/2000/svg" xmlns:xlink="http://www.w3.org/1999/xlink" x="0px"
	 y="0px" viewBox="0 0 800 800" style="enable-background:new 0 0 800 800;" xml:space="preserve">
<style type="text/css">
	.st0{fill:#233852;}
	.st1{fill:#00A7EA;stroke:#231815;stroke-width:9.206038e-02;stroke-miterlimit:10;}
</style>
<path class="st0" d="M596.3,400c0-12.2-9.8-22-22-22c-5.8,0-11.4,2.3-15.6,6.4l0,0l-116,116c-3.9,3.9-10.2,3.9-14.1,0l-53-53
	c-3.9-3.9-3.9-10.2,0-14.1l116-116c45.7-45.7,119.8-45.7,165.5,0c21.9,21.9,34.3,51.7,34.3,82.7H596.3z"/>
<path class="st1" d="M288.6,485c-46.9,0-85-38.1-85-85c0-1.8,0.1-3.7,0.2-5.5c2.7-41.7,36.2-75.9,77.9-79.2c20.3-1.7,40.5,4,56.9,16
	c6.3,4.5,15,3.7,20.5-1.8l49.5-49.5c3.9-3.9,3.9-10.2,0-14.1c-0.1-0.1-0.3-0.3-0.4-0.4c-35.4-31.5-81.7-47.8-129-45.3
	c-92.3,4.7-166.9,80.4-170.5,172.7c-3.9,99.3,73.5,183,172.9,186.9c46.5,1.8,91.9-14.5,126.7-45.4c4.1-3.7,4.4-10,0.7-14.1
	c-0.1-0.1-0.2-0.3-0.4-0.4l-49.5-49.5c-5.5-5.5-14.2-6.3-20.6-1.7C324.1,479.4,306.6,485,288.6,485z"/>
<path class="st0" d="M691.2,395.9l-95,3.3c0,0.3,0,0.5,0,0.8c0,12.2-9.8,22-22,22c-5.8,0-11.4-2.3-15.6-6.4l0,0l-116-116
	c-3.9-3.9-10.2-3.9-14.1,0l-53,53c-3.9,3.9-3.9,10.2,0,14.1l116,116c45.7,45.7,119.8,45.7,165.5,0c21.9-21.9,34.3-51.7,34.3-82.7h0
	C691.3,398.6,691.3,397.3,691.2,395.9z"/>
</svg>
