<?xml version="1.0" encoding="utf-8"?>
<!-- Generator: Adobe Illustrator 26.5.0, SVG Export Plug-In . SVG Version: 6.00 Build 0)  -->
<svg version="1.0" id="レイヤー_1" xmlns="http://www.w3.org/2000/svg" xmlns:xlink="http://www.w3.org/1999/xlink" x="0px"
	 y="0px" viewBox="0 0 790 750" style="enable-background:new 0 0 790 750;" xml:space="preserve">
<style type="text/css">
	.st0{fill:#FFFFFF;}
	.st1{fill:#00A7EA;stroke:#231815;stroke-width:9.206038e-02;stroke-miterlimit:10;}
</style>
<path class="st0" d="M136.8,652.5c-6.7,0.2-13.4-0.6-19.8-2.3c-4.7-1.2-9.1-3.5-12.8-6.6c-3.2-2.8-5.6-6.4-7-10.4
	c-1.5-4.4-2.2-9.1-2.1-13.7c0-5.4,0.6-10.8,1.6-16.1c1.8-9.2,4.3-16.7,7.5-22.4c2.9-5.3,7-9.9,12-13.4c4.9-3.2,10.4-5.5,16.1-6.6
	c6.6-1.2,13.3-1.8,20-1.8h4.7c1.8,0,3.7,0,5.8,0.1c2,0.1,4.1,0.1,6.2,0.2c2.1,0.1,4.1,0.1,6,0.1l-8.3,22.1c-2.5-0.1-5-0.2-7.7-0.3
	c-2.7-0.1-5.6-0.1-8.8-0.1c-3.4,0-6.7,0.2-10,0.9c-2.6,0.5-5,1.7-7.1,3.4c-2.1,1.9-3.8,4.2-4.9,6.8c-1.5,3.6-2.6,7.4-3.2,11.2
	c-0.6,2.7-1,5.2-1.3,7.3c-0.3,1.9-0.4,3.8-0.4,5.8c0,5.6,1.4,9.2,4.3,11c2.8,1.8,7.4,2.7,13.6,2.7h10.4c3.5,0,7.8-0.1,12.8-0.4
	l-8.5,22.1c-3.1,0.1-6.3,0.2-9.7,0.3C142.6,652.5,139.5,652.5,136.8,652.5z M206.6,520.6h28.2l-25.7,131.6H181L206.6,520.6z
	 M310.7,559.5h28.2l-11.2,57.6c-1,6.1-2.9,12.1-5.6,17.7c-2.2,4.6-5.4,8.6-9.4,11.8c-4.1,3.1-8.9,5.3-13.9,6.5
	c-6.3,1.4-12.7,2-19.1,1.9c-12.5,0-22-2.4-28.5-7.3c-6.5-4.8-9.7-12.3-9.7-22.3c0-1.7,0.1-3.5,0.3-5.4c0.2-1.8,0.4-3.6,0.8-5.4
	l10.8-55.1h28.2l-11,56.3c-0.2,1.2-0.4,2.3-0.5,3.5c-0.1,1.1-0.2,2-0.2,2.6c0,3.8,1,6.4,3,8c2,1.5,5,2.3,8.9,2.3
	c2.5,0,5-0.2,7.4-0.7c1.9-0.4,3.6-1.3,5-2.6c1.5-1.4,2.6-3.1,3.4-5c1-2.6,1.8-5.2,2.2-8L310.7,559.5z M403.7,596.2
	c7.4,2,13,4.8,16.7,8.2c3.7,3.5,5.6,8.4,5.6,14.8c0,3.2-0.4,6.3-1.1,9.4c-1.7,8.3-6.1,14.3-13.3,18.2c-7.2,3.8-17.4,5.8-30.6,5.8
	h-16.8c-3.2,0-6.5,0-9.9-0.1c-3.4-0.1-6.7-0.1-9.9-0.3l7.3-21.8c3.2,0.1,6.2,0.2,8.9,0.3c2.8,0.1,5.5,0.1,8.1,0.1h17.3
	c2.5,0,5-0.1,7.4-0.5c1.7-0.2,3.2-1,4.2-2.3c0.8-1.2,1.3-2.6,1.2-4.1c0.1-1.4-0.6-2.7-1.8-3.4c-1.7-0.9-3.6-1.6-5.5-1.9l-16.6-4.4
	c-5.3-1.4-10.1-4-14-7.8c-3.5-3.5-5.3-8.5-5.3-14.9c0-2.6,0.3-5.1,0.9-7.6c1.7-8.5,5.8-14.7,12.6-18.7c6.7-4,16.5-5.9,29.2-5.9h7.5
	c2.4,0,5,0,7.7,0.1c2.7,0.1,5.8,0.1,9.2,0.3c3.4,0.1,7.4,0.2,12,0.4l-8,21.6c-4.6-0.1-8.5-0.2-11.8-0.3c-3.2-0.1-6.1-0.1-8.4-0.2
	c-2.4-0.1-4.5-0.1-6.3-0.1H395c-2.3,0-4.7,0.1-7,0.4c-1.5,0.1-3,0.7-4.2,1.8c-0.5,0.5-0.9,1.2-1.1,1.9c-0.2,0.7-0.3,1.5-0.4,2.3
	c-0.1,1.2,0.5,2.4,1.6,3c1.5,0.8,3,1.3,4.6,1.8L403.7,596.2z M482.7,581.7l-6.6,34c-0.5,2-0.7,4-0.7,6c0,2.8,0.8,5,2.4,6.4
	c1.6,1.4,4.4,2.1,8.4,2.1h9.7c1.9,0,3.7,0,5.3-0.1c1.6-0.1,2.7-0.1,3.3-0.1l-8.5,22.1h-3.1c-1.6,0-3.4,0-5.3,0.1
	c-1.9,0.1-3.9,0.1-5.9,0.1h-4.8c-10.5,0-18.2-2.3-22.9-6.9c-4.8-4.6-7.2-11-7.2-19.3c0-1.8,0.1-3.6,0.4-5.3c0.2-1.9,0.5-3.8,0.9-5.8
	l15.1-77.6l28.9-3.4l-5,25.5h28.3l-8.5,22.1H482.7z M548.8,616.7v2.8c0.1,4.4,1.4,7.6,4,9.6c2.5,2,6.9,3,13,3c6.5,0,12.2-0.1,17-0.2
	c4.8-0.1,9.9-0.4,15.2-0.7l-8,20.4c-3.7,0.4-8.1,0.6-13.2,0.7c-5.1,0.1-10.6,0.2-16.4,0.2c-7.3,0-13.4-0.8-18.3-2.5
	c-4.4-1.3-8.4-3.7-11.7-6.9c-2.9-3-5-6.6-6.2-10.5c-1.3-4.3-1.9-8.7-1.9-13.2c0-5.2,0.6-10.3,1.6-15.4c1.8-9.8,4.4-17.8,7.8-23.9
	c3-5.6,7-10.5,12-14.4c4.4-3.4,9.5-5.8,15-7.1c5.6-1.3,11.3-1.9,17-1.9c12,0,21,2.2,26.8,6.7c5.8,4.5,8.8,10.9,8.8,19.3
	c-0.1,1.5-0.3,3.1-0.4,4.7c-0.2,1.6-0.5,3.3-0.8,4.9c-2,9-6.4,15.3-13.2,18.9c-6.8,3.7-16.6,5.5-29.5,5.5H548.8z M573.6,576.7
	c-6,0-10.6,1.5-13.6,4.5c-3.1,3-5.6,8.4-7.4,16h15.4c2.5,0,4.9-0.1,7.4-0.4c1.7-0.2,3.3-0.6,4.9-1.3c1.2-0.6,2.2-1.4,3-2.5
	c0.8-1.2,1.4-2.5,1.8-3.8c0.5-1.5,0.7-3,0.7-4.6c0.1-2.3-0.9-4.4-2.7-5.8C581.2,577.4,578.1,576.7,573.6,576.7L573.6,576.7z
	 M676.2,559c4.3,0,7.7,0,10.4,0.1c2.7,0.1,5.5,0.2,8.4,0.4l-8.7,22.7c-1.8-0.1-3.4-0.2-5-0.3c-1.5-0.1-3-0.1-4.4-0.1
	c-2.8-0.1-5.5,0.2-8.2,0.8c-2,0.4-3.9,1.4-5.4,2.8c-1.5,1.5-2.7,3.4-3.5,5.4c-1,2.8-1.8,5.7-2.4,8.7l-10.3,52.6H619l10.6-54.4
	c1.5-7.9,3.6-14.4,6.3-19.4c2.3-4.6,5.7-8.7,9.8-11.9c4-2.9,8.5-5,13.4-5.9C664.8,559.5,670.5,559,676.2,559z"/>
<path class="st1" d="M283.7,360c-46.9,0-85-38.1-85-85c0-1.8,0.1-3.7,0.2-5.5c2.7-41.7,36.2-75.9,77.9-79.2c20.3-1.7,40.5,4,56.9,16
	c6.3,4.5,15,3.7,20.5-1.8l49.5-49.5c3.9-3.9,3.9-10.2,0-14.1c-0.1-0.1-0.3-0.3-0.4-0.4c-35.4-31.5-81.7-47.8-129-45.3
	c-92.3,4.7-166.9,80.4-170.5,172.7c-3.9,99.3,73.5,183,172.9,186.9c46.5,1.8,91.9-14.5,126.7-45.4c4.1-3.7,4.4-10,0.7-14.1
	c-0.1-0.1-0.2-0.3-0.4-0.4l-49.5-49.5c-5.5-5.5-14.2-6.3-20.6-1.7C319.1,354.4,301.6,360,283.7,360z"/>
<path class="st0" d="M569.3,158c-31,0-60.8,12.3-82.7,34.3L471,207.8l-33.2-33.2c-3.9-3.9-10.2-3.9-14.1,0l-53,53
	c-3.9,3.9-3.9,10.2,0,14.1v0l33.2,33.2l-33.2,33.2c-3.9,3.9-3.9,10.2,0,14.1c0,0,0,0,0,0l53,53c3.9,3.9,10.2,3.9,14.1,0l33.2-33.2
	l15.6,15.6c45.7,45.7,119.8,45.7,165.5,0s45.7-119.8,0-165.5C630.1,170.3,600.4,158,569.3,158z M569.3,297c-5.8,0-11.4-2.3-15.6-6.4
	l0,0L538.2,275l15.6-15.6l0,0c8.6-8.6,22.5-8.6,31.1,0c8.6,8.6,8.6,22.5,0,31.1C580.8,294.7,575.2,297,569.3,297z"/>
</svg>
